<svg xmlns="http://www.w3.org/2000/svg" viewBox="0 0 500 500"><g id="freepik--background-simple--inject-34"><path d="M466.11,193.94c-16.24-53.08-58-95.57-107.4-118C311.57,54.6,252,44,207.31,76.93c-29.41,21.65-46.06,56.35-73,80.64-13.39,12.07-28,16-44,23.22-38.81,17.6-71.29,51.54-74,96.31C11.93,352,71.27,403.74,137.49,420.73c87.5,22.44,152.9,22.44,213-1.8,31.21-12.59,63-28.51,85.48-54.58,34-39.42,43.43-95.42,35.69-146A171.56,171.56,0,0,0,466.11,193.94Z" style="fill:#FF8243"></path><path d="M466.11,193.94c-16.24-53.08-58-95.57-107.4-118C311.57,54.6,252,44,207.31,76.93c-29.41,21.65-46.06,56.35-73,80.64-13.39,12.07-28,16-44,23.22-38.81,17.6-71.29,51.54-74,96.31C11.93,352,71.27,403.74,137.49,420.73c87.5,22.44,152.9,22.44,213-1.8,31.21-12.59,63-28.51,85.48-54.58,34-39.42,43.43-95.42,35.69-146A171.56,171.56,0,0,0,466.11,193.94Z" style="fill:#fff;opacity:0.8"></path></g><g id="freepik--Data--inject-34"><polygon points="74.72 181.78 60.16 181.78 60.16 184.95 60.16 203.61 60.16 206.79 91.03 206.79 91.03 184.95 75.75 184.95 74.72 181.78" style="fill:#FF8243"></polygon><polygon points="74.72 229.37 60.16 229.37 60.16 232.54 60.16 251.2 60.16 254.38 91.03 254.38 91.03 232.54 75.75 232.54 74.72 229.37" style="fill:#FF8243"></polygon><polygon points="74.72 276.96 60.16 276.96 60.16 280.13 60.16 298.79 60.16 301.97 91.03 301.97 91.03 280.13 75.75 280.13 74.72 276.96" style="fill:#FF8243"></polygon><polygon points="74.72 324.55 60.16 324.55 60.16 327.72 60.16 346.38 60.16 349.56 91.03 349.56 91.03 327.72 75.75 327.72 74.72 324.55" style="fill:#FF8243"></polygon><polygon points="74.72 372.14 60.16 372.14 60.16 375.31 60.16 393.97 60.16 397.15 91.03 397.15 91.03 375.31 75.75 375.31 74.72 372.14" style="fill:#FF8243"></polygon><polygon points="168 181.78 153.45 181.78 153.45 184.95 153.45 203.61 153.45 206.79 184.31 206.79 184.31 184.95 169.03 184.95 168 181.78" style="fill:#FF8243"></polygon><polygon points="228.52 184.95 227.49 181.78 212.93 181.78 212.93 184.95 212.93 203.61 212.93 206.79 243.8 206.79 243.8 184.95 228.52 184.95" style="fill:#FF8243"></polygon><polygon points="168 229.37 153.45 229.37 153.45 232.54 153.45 251.2 153.45 254.38 184.31 254.38 184.31 232.54 169.03 232.54 168 229.37" style="fill:#FF8243"></polygon><polygon points="227.49 276.96 212.93 276.96 212.93 280.13 212.93 298.79 212.93 301.97 243.8 301.97 243.8 280.13 228.52 280.13 227.49 276.96" style="fill:#FF8243"></polygon><polygon points="227.49 229.37 212.93 229.37 212.93 232.54 212.93 251.2 212.93 254.38 243.8 254.38 243.8 232.54 228.52 232.54 227.49 229.37" style="fill:#FF8243"></polygon><polygon points="168 276.96 153.45 276.96 153.45 280.13 153.45 298.79 153.45 301.97 184.31 301.97 184.31 280.13 169.03 280.13 168 276.96" style="fill:#FF8243"></polygon><polygon points="168 324.55 153.45 324.55 153.45 327.72 153.45 346.38 153.45 349.56 184.31 349.56 184.31 327.72 169.03 327.72 168 324.55" style="fill:#FF8243"></polygon><polygon points="227.49 324.55 212.93 324.55 212.93 327.72 212.93 346.38 212.93 349.56 243.8 349.56 243.8 327.72 228.52 327.72 227.49 324.55" style="fill:#FF8243"></polygon><polygon points="168 372.14 153.45 372.14 153.45 375.31 153.45 393.97 153.45 397.15 184.31 397.15 184.31 375.31 169.03 375.31 168 372.14" style="fill:#FF8243"></polygon><polygon points="227.49 372.14 212.93 372.14 212.93 375.31 212.93 393.97 212.93 397.15 243.8 397.15 243.8 375.31 228.52 375.31 227.49 372.14" style="fill:#FF8243"></polygon><g style="opacity:0.5"><polygon points="74.72 181.78 60.16 181.78 60.16 184.95 60.16 203.61 60.16 206.79 91.03 206.79 91.03 184.95 75.75 184.95 74.72 181.78" style="fill:#fff"></polygon><polygon points="74.72 229.37 60.16 229.37 60.16 232.54 60.16 251.2 60.16 254.38 91.03 254.38 91.03 232.54 75.75 232.54 74.72 229.37" style="fill:#fff"></polygon><polygon points="74.72 276.96 60.16 276.96 60.16 280.13 60.16 298.79 60.16 301.97 91.03 301.97 91.03 280.13 75.75 280.13 74.72 276.96" style="fill:#fff"></polygon><polygon points="74.72 324.55 60.16 324.55 60.16 327.72 60.16 346.38 60.16 349.56 91.03 349.56 91.03 327.72 75.75 327.72 74.72 324.55" style="fill:#fff"></polygon><polygon points="74.72 372.14 60.16 372.14 60.16 375.31 60.16 393.97 60.16 397.15 91.03 397.15 91.03 375.31 75.75 375.31 74.72 372.14" style="fill:#fff"></polygon><polygon points="168 181.78 153.45 181.78 153.45 184.95 153.45 203.61 153.45 206.79 184.31 206.79 184.31 184.95 169.03 184.95 168 181.78" style="fill:#fff"></polygon><polygon points="228.52 184.95 227.49 181.78 212.93 181.78 212.93 184.95 212.93 203.61 212.93 206.79 243.8 206.79 243.8 184.95 228.52 184.95" style="fill:#fff"></polygon><polygon points="168 229.37 153.45 229.37 153.45 232.54 153.45 251.2 153.45 254.38 184.31 254.38 184.31 232.54 169.03 232.54 168 229.37" style="fill:#fff"></polygon><polygon points="227.49 276.96 212.93 276.96 212.93 280.13 212.93 298.79 212.93 301.97 243.8 301.97 243.8 280.13 228.52 280.13 227.49 276.96" style="fill:#fff"></polygon><polygon points="227.49 229.37 212.93 229.37 212.93 232.54 212.93 251.2 212.93 254.38 243.8 254.38 243.8 232.54 228.52 232.54 227.49 229.37" style="fill:#fff"></polygon><polygon points="168 276.96 153.45 276.96 153.45 280.13 153.45 298.79 153.45 301.97 184.31 301.97 184.31 280.13 169.03 280.13 168 276.96" style="fill:#fff"></polygon><polygon points="168 324.55 153.45 324.55 153.45 327.72 153.45 346.38 153.45 349.56 184.31 349.56 184.31 327.72 169.03 327.72 168 324.55" style="fill:#fff"></polygon><polygon points="227.49 324.55 212.93 324.55 212.93 327.72 212.93 346.38 212.93 349.56 243.8 349.56 243.8 327.72 228.52 327.72 227.49 324.55" style="fill:#fff"></polygon><polygon points="168 372.14 153.45 372.14 153.45 375.31 153.45 393.97 153.45 397.15 184.31 397.15 184.31 375.31 169.03 375.31 168 372.14" style="fill:#fff"></polygon><polygon points="227.49 372.14 212.93 372.14 212.93 375.31 212.93 393.97 212.93 397.15 243.8 397.15 243.8 375.31 228.52 375.31 227.49 372.14" style="fill:#fff"></polygon></g><polygon points="299.31 181.78 284.76 181.78 284.76 184.95 284.76 203.61 284.76 206.79 315.62 206.79 315.62 184.95 300.34 184.95 299.31 181.78" style="fill:#FF8243"></polygon><polygon points="299.31 229.37 284.76 229.37 284.76 232.54 284.76 251.2 284.76 254.38 315.62 254.38 315.62 232.54 300.34 232.54 299.31 229.37" style="fill:#FF8243"></polygon><polygon points="299.31 276.96 284.76 276.96 284.76 280.13 284.76 298.79 284.76 301.97 315.62 301.97 315.62 280.13 300.34 280.13 299.31 276.96" style="fill:#FF8243"></polygon><polygon points="299.31 324.55 284.76 324.55 284.76 327.72 284.76 346.38 284.76 349.56 315.62 349.56 315.62 327.72 300.34 327.72 299.31 324.55" style="fill:#FF8243"></polygon><polygon points="299.31 372.14 284.76 372.14 284.76 375.31 284.76 393.97 284.76 397.15 315.62 397.15 315.62 375.31 300.34 375.31 299.31 372.14" style="fill:#FF8243"></polygon><polygon points="377 181.78 362.45 181.78 362.45 184.95 362.45 203.61 362.45 206.79 393.32 206.79 393.32 184.95 378.04 184.95 377 181.78" style="fill:#FF8243"></polygon><polygon points="437.52 184.95 436.49 181.78 421.94 181.78 421.94 184.95 421.94 203.61 421.94 206.79 452.8 206.79 452.8 184.95 437.52 184.95" style="fill:#FF8243"></polygon><polygon points="377 229.37 362.45 229.37 362.45 232.54 362.45 251.2 362.45 254.38 393.32 254.38 393.32 232.54 378.04 232.54 377 229.37" style="fill:#FF8243"></polygon><polygon points="436.49 276.96 421.94 276.96 421.94 280.13 421.94 298.79 421.94 301.97 452.8 301.97 452.8 280.13 437.52 280.13 436.49 276.96" style="fill:#FF8243"></polygon><polygon points="436.49 229.37 421.94 229.37 421.94 232.54 421.94 251.2 421.94 254.38 452.8 254.38 452.8 232.54 437.52 232.54 436.49 229.37" style="fill:#FF8243"></polygon><polygon points="377 276.96 362.45 276.96 362.45 280.13 362.45 298.79 362.45 301.97 393.32 301.97 393.32 280.13 378.04 280.13 377 276.96" style="fill:#FF8243"></polygon><polygon points="377 324.55 362.45 324.55 362.45 327.72 362.45 346.38 362.45 349.56 393.32 349.56 393.32 327.72 378.04 327.72 377 324.55" style="fill:#FF8243"></polygon><polygon points="436.49 324.55 421.94 324.55 421.94 327.72 421.94 346.38 421.94 349.56 452.8 349.56 452.8 327.72 437.52 327.72 436.49 324.55" style="fill:#FF8243"></polygon><polygon points="377 372.14 362.45 372.14 362.45 375.31 362.45 393.97 362.45 397.15 393.32 397.15 393.32 375.31 378.04 375.31 377 372.14" style="fill:#FF8243"></polygon><polygon points="436.49 372.14 421.94 372.14 421.94 375.31 421.94 393.97 421.94 397.15 452.8 397.15 452.8 375.31 437.52 375.31 436.49 372.14" style="fill:#FF8243"></polygon><g style="opacity:0.5"><polygon points="299.31 181.78 284.76 181.78 284.76 184.95 284.76 203.61 284.76 206.79 315.62 206.79 315.62 184.95 300.34 184.95 299.31 181.78" style="fill:#fff"></polygon><polygon points="299.31 229.37 284.76 229.37 284.76 232.54 284.76 251.2 284.76 254.38 315.62 254.38 315.62 232.54 300.34 232.54 299.31 229.37" style="fill:#fff"></polygon><polygon points="299.31 276.96 284.76 276.96 284.76 280.13 284.76 298.79 284.76 301.97 315.62 301.97 315.62 280.13 300.34 280.13 299.31 276.96" style="fill:#fff"></polygon><polygon points="299.31 324.55 284.76 324.55 284.76 327.72 284.76 346.38 284.76 349.56 315.62 349.56 315.62 327.72 300.34 327.72 299.31 324.55" style="fill:#fff"></polygon><polygon points="299.31 372.14 284.76 372.14 284.76 375.31 284.76 393.97 284.76 397.15 315.62 397.15 315.62 375.31 300.34 375.31 299.31 372.14" style="fill:#fff"></polygon><polygon points="377 181.78 362.45 181.78 362.45 184.95 362.45 203.61 362.45 206.79 393.32 206.79 393.32 184.95 378.04 184.95 377 181.78" style="fill:#fff"></polygon><polygon points="437.52 184.95 436.49 181.78 421.94 181.78 421.94 184.95 421.94 203.61 421.94 206.79 452.8 206.79 452.8 184.95 437.52 184.95" style="fill:#fff"></polygon><polygon points="377 229.37 362.45 229.37 362.45 232.54 362.45 251.2 362.45 254.38 393.32 254.38 393.32 232.54 378.04 232.54 377 229.37" style="fill:#fff"></polygon><polygon points="436.49 276.96 421.94 276.96 421.94 280.13 421.94 298.79 421.94 301.97 452.8 301.97 452.8 280.13 437.52 280.13 436.49 276.96" style="fill:#fff"></polygon><polygon points="436.49 229.37 421.94 229.37 421.94 232.54 421.94 251.2 421.94 254.38 452.8 254.38 452.8 232.54 437.52 232.54 436.49 229.37" style="fill:#fff"></polygon><polygon points="377 276.96 362.45 276.96 362.45 280.13 362.45 298.79 362.45 301.97 393.32 301.97 393.32 280.13 378.04 280.13 377 276.96" style="fill:#fff"></polygon><polygon points="377 324.55 362.45 324.55 362.45 327.72 362.45 346.38 362.45 349.56 393.32 349.56 393.32 327.72 378.04 327.72 377 324.55" style="fill:#fff"></polygon><polygon points="436.49 324.55 421.94 324.55 421.94 327.72 421.94 346.38 421.94 349.56 452.8 349.56 452.8 327.72 437.52 327.72 436.49 324.55" style="fill:#fff"></polygon><polygon points="377 372.14 362.45 372.14 362.45 375.31 362.45 393.97 362.45 397.15 393.32 397.15 393.32 375.31 378.04 375.31 377 372.14" style="fill:#fff"></polygon><polygon points="436.49 372.14 421.94 372.14 421.94 375.31 421.94 393.97 421.94 397.15 452.8 397.15 452.8 375.31 437.52 375.31 436.49 372.14" style="fill:#fff"></polygon></g><path d="M342.59,200.25h-2.82a.7.7,0,1,1,0-1.39h2.82a.7.7,0,0,1,0,1.39Zm.69,2.53a.69.69,0,0,0-.69-.7h-2.82a.7.7,0,1,0,0,1.39h2.82A.69.69,0,0,0,343.28,202.78Zm0,3.22a.7.7,0,0,0-.69-.7h-2.82a.7.7,0,0,0-.7.7.69.69,0,0,0,.7.69h2.82A.69.69,0,0,0,343.28,206Zm0,3.22a.69.69,0,0,0-.69-.69h-2.82a.69.69,0,0,0-.7.69.7.7,0,0,0,.7.7h2.82A.7.7,0,0,0,343.28,209.22Zm0,3.22a.69.69,0,0,0-.69-.69h-2.82a.7.7,0,1,0,0,1.39h2.82A.69.69,0,0,0,343.28,212.44Zm0,3.22a.69.69,0,0,0-.69-.69h-2.82a.7.7,0,1,0,0,1.39h2.82A.69.69,0,0,0,343.28,215.66Zm0,3.22a.69.69,0,0,0-.69-.69h-2.82a.7.7,0,1,0,0,1.39h2.82A.69.69,0,0,0,343.28,218.88Zm0,3.22a.69.69,0,0,0-.69-.69h-2.82a.7.7,0,1,0,0,1.39h2.82A.69.69,0,0,0,343.28,222.1Zm10.54-22.54a.69.69,0,0,0-.69-.7h-7.4a.7.7,0,0,0,0,1.39h7.4A.69.69,0,0,0,353.82,199.56Zm0,3.22a.69.69,0,0,0-.69-.7h-7.4a.7.7,0,0,0,0,1.39h7.4A.69.69,0,0,0,353.82,202.78Zm0,3.22a.7.7,0,0,0-.69-.7h-7.4a.7.7,0,0,0-.69.7.69.69,0,0,0,.69.69h7.4A.69.69,0,0,0,353.82,206Zm0,3.22a.69.69,0,0,0-.69-.69h-7.4a.69.69,0,0,0-.69.69.7.7,0,0,0,.69.7h7.4A.7.7,0,0,0,353.82,209.22Zm0,3.22a.69.69,0,0,0-.69-.69h-7.4a.7.7,0,0,0,0,1.39h7.4A.69.69,0,0,0,353.82,212.44Zm8.86,3.22A.69.69,0,0,0,362,215h-7.4a.7.7,0,1,0,0,1.39H362A.69.69,0,0,0,362.68,215.66Zm0,3.22a.69.69,0,0,0-.69-.69h-7.4a.7.7,0,1,0,0,1.39H362A.69.69,0,0,0,362.68,218.88Zm0,3.22a.69.69,0,0,0-.69-.69h-7.4a.7.7,0,1,0,0,1.39H362A.69.69,0,0,0,362.68,222.1Zm-5.6-22.54a.81.81,0,1,0-.81.8A.81.81,0,0,0,357.08,199.56Zm2.42,0a.81.81,0,0,0-.81-.81.81.81,0,1,0,.81.81Zm2.41,0a.81.81,0,1,0-.8.8A.8.8,0,0,0,361.91,199.56Zm2.42,0a.81.81,0,1,0-.81.8A.81.81,0,0,0,364.33,199.56Zm2.41,0a.81.81,0,1,0-.8.8A.8.8,0,0,0,366.74,199.56Zm2.42,0a.81.81,0,1,0-.81.8A.81.81,0,0,0,369.16,199.56ZM357.08,206a.81.81,0,1,0-.81.81A.81.81,0,0,0,357.08,206Zm2.42,0a.82.82,0,0,0-.81-.81.81.81,0,0,0,0,1.62A.82.82,0,0,0,359.5,206Zm2.41,0a.81.81,0,1,0-.8.81A.81.81,0,0,0,361.91,206Zm2.42,0a.81.81,0,1,0-.81.81A.81.81,0,0,0,364.33,206Zm2.41,0a.81.81,0,1,0-.8.81A.81.81,0,0,0,366.74,206Zm2.42,0a.81.81,0,1,0-.81.81A.81.81,0,0,0,369.16,206Zm-3.83,9.26a.81.81,0,1,0-.8.81A.81.81,0,0,0,365.33,215.26Zm2.42,0a.81.81,0,1,0-.81.81A.81.81,0,0,0,367.75,215.26Zm2.41,0a.81.81,0,1,0-.8.81A.81.81,0,0,0,370.16,215.26Zm2.42,0a.81.81,0,1,0-.81.81A.81.81,0,0,0,372.58,215.26Zm2.42,0a.81.81,0,1,0-.81.81A.81.81,0,0,0,375,215.26Zm2.41,0a.81.81,0,1,0-.8.81A.81.81,0,0,0,377.41,215.26Zm-12.08,6.64a.81.81,0,1,0-.8.81A.8.8,0,0,0,365.33,221.9Zm2.42,0a.81.81,0,1,0-.81.81A.8.8,0,0,0,367.75,221.9Zm2.41,0a.81.81,0,1,0-.8.81A.8.8,0,0,0,370.16,221.9Zm2.42,0a.81.81,0,1,0-.81.81A.8.8,0,0,0,372.58,221.9Zm2.42,0a.81.81,0,1,0-.81.81A.8.8,0,0,0,375,221.9Zm2.41,0a.81.81,0,1,0-.8.81A.8.8,0,0,0,377.41,221.9Z" style="fill:#FF8243"></path><path d="M342.59,226h-2.82a.7.7,0,1,1,0-1.39h2.82a.7.7,0,0,1,0,1.39Zm.69,2.52a.69.69,0,0,0-.69-.69h-2.82a.7.7,0,1,0,0,1.39h2.82A.69.69,0,0,0,343.28,228.55Zm0,3.22a.69.69,0,0,0-.69-.69h-2.82a.7.7,0,1,0,0,1.39h2.82A.69.69,0,0,0,343.28,231.77Zm0,3.22a.69.69,0,0,0-.69-.69h-2.82a.7.7,0,1,0,0,1.39h2.82A.69.69,0,0,0,343.28,235Zm0,3.23a.69.69,0,0,0-.69-.7h-2.82a.7.7,0,1,0,0,1.39h2.82A.69.69,0,0,0,343.28,238.22Zm0,3.22a.69.69,0,0,0-.69-.7h-2.82a.7.7,0,1,0,0,1.39h2.82A.69.69,0,0,0,343.28,241.44Zm0,3.22a.69.69,0,0,0-.69-.7h-2.82a.7.7,0,1,0,0,1.39h2.82A.69.69,0,0,0,343.28,244.66Zm0,3.22a.69.69,0,0,0-.69-.7h-2.82a.7.7,0,1,0,0,1.39h2.82A.69.69,0,0,0,343.28,247.88Zm10.54-22.55a.69.69,0,0,0-.69-.69h-7.4a.7.7,0,0,0,0,1.39h7.4A.69.69,0,0,0,353.82,225.33Zm0,3.22a.69.69,0,0,0-.69-.69h-7.4a.7.7,0,0,0,0,1.39h7.4A.69.69,0,0,0,353.82,228.55Zm0,3.22a.69.69,0,0,0-.69-.69h-7.4a.7.7,0,0,0,0,1.39h7.4A.69.69,0,0,0,353.82,231.77Zm0,3.22a.69.69,0,0,0-.69-.69h-7.4a.7.7,0,0,0,0,1.39h7.4A.69.69,0,0,0,353.82,235Zm0,3.23a.69.69,0,0,0-.69-.7h-7.4a.7.7,0,0,0,0,1.39h7.4A.69.69,0,0,0,353.82,238.22Zm8.86,3.22a.69.69,0,0,0-.69-.7h-7.4a.7.7,0,1,0,0,1.39H362A.69.69,0,0,0,362.68,241.44Zm0,3.22a.69.69,0,0,0-.69-.7h-7.4a.7.7,0,1,0,0,1.39H362A.69.69,0,0,0,362.68,244.66Zm0,3.22a.69.69,0,0,0-.69-.7h-7.4a.7.7,0,1,0,0,1.39H362A.69.69,0,0,0,362.68,247.88Zm-5.6-22.55a.81.81,0,1,0-.81.81A.8.8,0,0,0,357.08,225.33Zm2.42,0a.81.81,0,0,0-.81-.8.81.81,0,0,0,0,1.61A.81.81,0,0,0,359.5,225.33Zm2.41,0a.81.81,0,1,0-.8.81A.8.8,0,0,0,361.91,225.33Zm2.42,0a.81.81,0,1,0-.81.81A.8.8,0,0,0,364.33,225.33Zm2.41,0a.81.81,0,1,0-.8.81A.8.8,0,0,0,366.74,225.33Zm2.42,0a.81.81,0,1,0-.81.81A.8.8,0,0,0,369.16,225.33Zm-12.08,6.44a.81.81,0,1,0-.81.81A.8.8,0,0,0,357.08,231.77Zm2.42,0a.81.81,0,0,0-.81-.8.81.81,0,0,0,0,1.61A.81.81,0,0,0,359.5,231.77Zm2.41,0a.81.81,0,1,0-.8.81A.8.8,0,0,0,361.91,231.77Zm2.42,0a.81.81,0,1,0-.81.81A.8.8,0,0,0,364.33,231.77Zm2.41,0a.81.81,0,1,0-.8.81A.8.8,0,0,0,366.74,231.77Zm2.42,0a.81.81,0,1,0-.81.81A.8.8,0,0,0,369.16,231.77ZM365.33,241a.81.81,0,1,0-.8.81A.8.8,0,0,0,365.33,241Zm2.42,0a.81.81,0,1,0-.81.81A.8.8,0,0,0,367.75,241Zm2.41,0a.81.81,0,1,0-.8.81A.8.8,0,0,0,370.16,241Zm2.42,0a.81.81,0,1,0-.81.81A.8.8,0,0,0,372.58,241Zm2.42,0a.81.81,0,1,0-.81.81A.8.8,0,0,0,375,241Zm2.41,0a.81.81,0,1,0-.8.81A.8.8,0,0,0,377.41,241Zm-12.08,6.65a.81.81,0,1,0-.8.8A.8.8,0,0,0,365.33,247.68Zm2.42,0a.81.81,0,1,0-.81.8A.81.81,0,0,0,367.75,247.68Zm2.41,0a.81.81,0,1,0-.8.8A.8.8,0,0,0,370.16,247.68Zm2.42,0a.81.81,0,1,0-.81.8A.81.81,0,0,0,372.58,247.68Zm2.42,0a.81.81,0,1,0-.81.8A.81.81,0,0,0,375,247.68Zm2.41,0a.81.81,0,1,0-.8.8A.8.8,0,0,0,377.41,247.68Z" style="fill:#FF8243"></path><path d="M342.59,252.42h-2.82a.7.7,0,1,1,0-1.39h2.82a.7.7,0,0,1,0,1.39Zm.69,2.53a.69.69,0,0,0-.69-.7h-2.82a.7.7,0,1,0,0,1.39h2.82A.69.69,0,0,0,343.28,255Zm0,3.22a.7.7,0,0,0-.69-.7h-2.82a.7.7,0,0,0-.7.7.69.69,0,0,0,.7.69h2.82A.69.69,0,0,0,343.28,258.17Zm0,3.22a.69.69,0,0,0-.69-.69h-2.82a.69.69,0,0,0-.7.69.7.7,0,0,0,.7.7h2.82A.7.7,0,0,0,343.28,261.39Zm0,3.22a.69.69,0,0,0-.69-.69h-2.82a.7.7,0,1,0,0,1.39h2.82A.69.69,0,0,0,343.28,264.61Zm0,3.22a.69.69,0,0,0-.69-.69h-2.82a.7.7,0,1,0,0,1.39h2.82A.69.69,0,0,0,343.28,267.83Zm0,3.22a.69.69,0,0,0-.69-.69h-2.82a.7.7,0,1,0,0,1.39h2.82A.69.69,0,0,0,343.28,271.05Zm0,3.22a.69.69,0,0,0-.69-.69h-2.82a.7.7,0,1,0,0,1.39h2.82A.69.69,0,0,0,343.28,274.27Zm10.54-22.54a.69.69,0,0,0-.69-.7h-7.4a.7.7,0,0,0,0,1.39h7.4A.69.69,0,0,0,353.82,251.73Zm0,3.22a.69.69,0,0,0-.69-.7h-7.4a.7.7,0,0,0,0,1.39h7.4A.69.69,0,0,0,353.82,255Zm0,3.22a.7.7,0,0,0-.69-.7h-7.4a.7.7,0,0,0-.69.7.69.69,0,0,0,.69.69h7.4A.69.69,0,0,0,353.82,258.17Zm0,3.22a.69.69,0,0,0-.69-.69h-7.4a.69.69,0,0,0-.69.69.7.7,0,0,0,.69.7h7.4A.7.7,0,0,0,353.82,261.39Zm0,3.22a.69.69,0,0,0-.69-.69h-7.4a.7.7,0,0,0,0,1.39h7.4A.69.69,0,0,0,353.82,264.61Zm8.86,3.22a.69.69,0,0,0-.69-.69h-7.4a.7.7,0,1,0,0,1.39H362A.69.69,0,0,0,362.68,267.83Zm0,3.22a.69.69,0,0,0-.69-.69h-7.4a.7.7,0,1,0,0,1.39H362A.69.69,0,0,0,362.68,271.05Zm0,3.22a.69.69,0,0,0-.69-.69h-7.4a.7.7,0,1,0,0,1.39H362A.69.69,0,0,0,362.68,274.27Zm-5.6-22.54a.81.81,0,1,0-.81.8A.81.81,0,0,0,357.08,251.73Zm2.42,0a.81.81,0,0,0-.81-.81.81.81,0,1,0,.81.81Zm2.41,0a.81.81,0,1,0-.8.8A.8.8,0,0,0,361.91,251.73Zm2.42,0a.81.81,0,1,0-.81.8A.81.81,0,0,0,364.33,251.73Zm2.41,0a.81.81,0,1,0-.8.8A.8.8,0,0,0,366.74,251.73Zm2.42,0a.81.81,0,1,0-.81.8A.81.81,0,0,0,369.16,251.73Zm-12.08,6.44a.81.81,0,1,0-.81.8A.81.81,0,0,0,357.08,258.17Zm2.42,0a.81.81,0,0,0-.81-.81.81.81,0,1,0,.81.81Zm2.41,0a.81.81,0,1,0-.8.8A.8.8,0,0,0,361.91,258.17Zm2.42,0a.81.81,0,1,0-.81.8A.81.81,0,0,0,364.33,258.17Zm2.41,0a.81.81,0,1,0-.8.8A.8.8,0,0,0,366.74,258.17Zm2.42,0a.81.81,0,1,0-.81.8A.81.81,0,0,0,369.16,258.17Zm-3.83,9.26a.81.81,0,1,0-.8.8A.8.8,0,0,0,365.33,267.43Zm2.42,0a.81.81,0,1,0-.81.8A.81.81,0,0,0,367.75,267.43Zm2.41,0a.81.81,0,1,0-.8.8A.8.8,0,0,0,370.16,267.43Zm2.42,0a.81.81,0,1,0-.81.8A.81.81,0,0,0,372.58,267.43Zm2.42,0a.81.81,0,1,0-.81.8A.81.81,0,0,0,375,267.43Zm2.41,0a.81.81,0,1,0-.8.8A.8.8,0,0,0,377.41,267.43Zm-12.08,6.64a.81.81,0,1,0-.8.81A.8.8,0,0,0,365.33,274.07Zm2.42,0a.81.81,0,1,0-.81.81A.8.8,0,0,0,367.75,274.07Zm2.41,0a.81.81,0,1,0-.8.81A.8.8,0,0,0,370.16,274.07Zm2.42,0a.81.81,0,1,0-.81.81A.8.8,0,0,0,372.58,274.07Zm2.42,0a.81.81,0,1,0-.81.81A.8.8,0,0,0,375,274.07Zm2.41,0a.81.81,0,1,0-.8.81A.8.8,0,0,0,377.41,274.07Z" style="fill:#FF8243"></path><path d="M385.85,200.25H383a.7.7,0,1,1,0-1.39h2.81a.7.7,0,1,1,0,1.39Zm.7,2.53a.7.7,0,0,0-.7-.7H383a.7.7,0,1,0,0,1.39h2.81A.69.69,0,0,0,386.55,202.78Zm0,3.22a.7.7,0,0,0-.7-.7H383a.7.7,0,0,0-.7.7.69.69,0,0,0,.7.69h2.81A.69.69,0,0,0,386.55,206Zm0,3.22a.69.69,0,0,0-.7-.69H383a.69.69,0,0,0-.7.69.7.7,0,0,0,.7.7h2.81A.7.7,0,0,0,386.55,209.22Zm0,3.22a.69.69,0,0,0-.7-.69H383a.7.7,0,1,0,0,1.39h2.81A.7.7,0,0,0,386.55,212.44Zm0,3.22a.69.69,0,0,0-.7-.69H383a.7.7,0,1,0,0,1.39h2.81A.7.7,0,0,0,386.55,215.66Zm0,3.22a.69.69,0,0,0-.7-.69H383a.7.7,0,1,0,0,1.39h2.81A.7.7,0,0,0,386.55,218.88Zm0,3.22a.69.69,0,0,0-.7-.69H383a.7.7,0,1,0,0,1.39h2.81A.7.7,0,0,0,386.55,222.1Zm10.54-22.54a.69.69,0,0,0-.69-.7H389a.7.7,0,1,0,0,1.39h7.4A.69.69,0,0,0,397.09,199.56Zm0,3.22a.69.69,0,0,0-.69-.7H389a.7.7,0,1,0,0,1.39h7.4A.69.69,0,0,0,397.09,202.78Zm0,3.22a.7.7,0,0,0-.69-.7H389a.71.71,0,0,0-.7.7.7.7,0,0,0,.7.69h7.4A.69.69,0,0,0,397.09,206Zm0,3.22a.69.69,0,0,0-.69-.69H389a.7.7,0,0,0-.7.69.71.71,0,0,0,.7.7h7.4A.7.7,0,0,0,397.09,209.22Zm0,3.22a.69.69,0,0,0-.69-.69H389a.7.7,0,1,0,0,1.39h7.4A.69.69,0,0,0,397.09,212.44Zm8.86,3.22a.69.69,0,0,0-.69-.69h-7.4a.7.7,0,1,0,0,1.39h7.4A.69.69,0,0,0,406,215.66Zm0,3.22a.69.69,0,0,0-.69-.69h-7.4a.7.7,0,1,0,0,1.39h7.4A.69.69,0,0,0,406,218.88Zm0,3.22a.69.69,0,0,0-.69-.69h-7.4a.7.7,0,1,0,0,1.39h7.4A.69.69,0,0,0,406,222.1Zm-5.6-22.54a.81.81,0,1,0-.81.8A.81.81,0,0,0,400.35,199.56Zm2.41,0a.81.81,0,1,0-.8.8A.8.8,0,0,0,402.76,199.56Zm2.42,0a.81.81,0,1,0-.81.8A.81.81,0,0,0,405.18,199.56Zm2.42,0a.81.81,0,1,0-.81.8A.81.81,0,0,0,407.6,199.56Zm2.41,0a.81.81,0,1,0-.8.8A.8.8,0,0,0,410,199.56Zm2.42,0a.81.81,0,1,0-.81.8A.81.81,0,0,0,412.43,199.56ZM400.35,206a.81.81,0,1,0-.81.81A.81.81,0,0,0,400.35,206Zm2.41,0a.81.81,0,1,0-.8.81A.81.81,0,0,0,402.76,206Zm2.42,0a.81.81,0,1,0-.81.81A.81.81,0,0,0,405.18,206Zm2.42,0a.81.81,0,1,0-.81.81A.81.81,0,0,0,407.6,206Zm2.41,0a.81.81,0,1,0-.8.81A.81.81,0,0,0,410,206Zm2.42,0a.81.81,0,1,0-.81.81A.81.81,0,0,0,412.43,206Zm-3.83,9.26a.81.81,0,1,0-.8.81A.81.81,0,0,0,408.6,215.26Zm2.42,0a.81.81,0,1,0-.81.81A.81.81,0,0,0,411,215.26Zm2.41,0a.81.81,0,1,0-.8.81A.81.81,0,0,0,413.43,215.26Zm2.42,0a.81.81,0,1,0-.81.81A.81.81,0,0,0,415.85,215.26Zm2.41,0a.81.81,0,1,0-.8.81A.81.81,0,0,0,418.26,215.26Zm2.42,0a.81.81,0,1,0-.8.81A.81.81,0,0,0,420.68,215.26ZM408.6,221.9a.81.81,0,1,0-.8.81A.8.8,0,0,0,408.6,221.9Zm2.42,0a.81.81,0,1,0-.81.81A.8.8,0,0,0,411,221.9Zm2.41,0a.81.81,0,1,0-.8.81A.8.8,0,0,0,413.43,221.9Zm2.42,0a.81.81,0,1,0-.81.81A.8.8,0,0,0,415.85,221.9Zm2.41,0a.81.81,0,1,0-.8.81A.8.8,0,0,0,418.26,221.9Zm2.42,0a.81.81,0,1,0-.8.81A.8.8,0,0,0,420.68,221.9Z" style="fill:#FF8243"></path><path d="M385.85,226.65H383a.7.7,0,1,1,0-1.39h2.81a.7.7,0,1,1,0,1.39Zm.7,2.53a.7.7,0,0,0-.7-.7H383a.7.7,0,1,0,0,1.39h2.81A.69.69,0,0,0,386.55,229.18Zm0,3.22a.7.7,0,0,0-.7-.7H383a.7.7,0,1,0,0,1.39h2.81A.69.69,0,0,0,386.55,232.4Zm0,3.22a.7.7,0,0,0-.7-.7H383a.7.7,0,1,0,0,1.39h2.81A.69.69,0,0,0,386.55,235.62Zm0,3.22a.7.7,0,0,0-.7-.7H383a.7.7,0,1,0,0,1.39h2.81A.69.69,0,0,0,386.55,238.84Zm0,3.22a.7.7,0,0,0-.7-.7H383a.7.7,0,1,0,0,1.39h2.81A.69.69,0,0,0,386.55,242.06Zm0,3.22a.7.7,0,0,0-.7-.7H383a.7.7,0,0,0-.7.7.69.69,0,0,0,.7.69h2.81A.69.69,0,0,0,386.55,245.28Zm0,3.22a.69.69,0,0,0-.7-.69H383a.69.69,0,0,0-.7.69.7.7,0,0,0,.7.7h2.81A.7.7,0,0,0,386.55,248.5ZM397.09,226a.69.69,0,0,0-.69-.69H389a.7.7,0,1,0,0,1.39h7.4A.69.69,0,0,0,397.09,226Zm0,3.23a.69.69,0,0,0-.69-.7H389a.7.7,0,1,0,0,1.39h7.4A.69.69,0,0,0,397.09,229.18Zm0,3.22a.69.69,0,0,0-.69-.7H389a.7.7,0,1,0,0,1.39h7.4A.69.69,0,0,0,397.09,232.4Zm0,3.22a.69.69,0,0,0-.69-.7H389a.7.7,0,1,0,0,1.39h7.4A.69.69,0,0,0,397.09,235.62Zm0,3.22a.69.69,0,0,0-.69-.7H389a.7.7,0,1,0,0,1.39h7.4A.69.69,0,0,0,397.09,238.84Zm8.86,3.22a.69.69,0,0,0-.69-.7h-7.4a.7.7,0,1,0,0,1.39h7.4A.69.69,0,0,0,406,242.06Zm0,3.22a.7.7,0,0,0-.69-.7h-7.4a.7.7,0,0,0-.7.7.69.69,0,0,0,.7.69h7.4A.69.69,0,0,0,406,245.28Zm0,3.22a.69.69,0,0,0-.69-.69h-7.4a.69.69,0,0,0-.7.69.7.7,0,0,0,.7.7h7.4A.7.7,0,0,0,406,248.5ZM400.35,226a.81.81,0,1,0-.81.81A.8.8,0,0,0,400.35,226Zm2.41,0a.81.81,0,1,0-.8.81A.8.8,0,0,0,402.76,226Zm2.42,0a.81.81,0,1,0-.81.81A.8.8,0,0,0,405.18,226Zm2.42,0a.81.81,0,1,0-.81.81A.8.8,0,0,0,407.6,226Zm2.41,0a.81.81,0,1,0-.8.81A.8.8,0,0,0,410,226Zm2.42,0a.81.81,0,1,0-.81.81A.8.8,0,0,0,412.43,226Zm-12.08,6.45a.81.81,0,1,0-.81.8A.81.81,0,0,0,400.35,232.4Zm2.41,0a.81.81,0,1,0-.8.8A.8.8,0,0,0,402.76,232.4Zm2.42,0a.81.81,0,1,0-.81.8A.81.81,0,0,0,405.18,232.4Zm2.42,0a.81.81,0,1,0-.81.8A.81.81,0,0,0,407.6,232.4Zm2.41,0a.81.81,0,1,0-.8.8A.8.8,0,0,0,410,232.4Zm2.42,0a.81.81,0,1,0-.81.8A.81.81,0,0,0,412.43,232.4Zm-3.83,9.26a.81.81,0,1,0-.8.8A.8.8,0,0,0,408.6,241.66Zm2.42,0a.81.81,0,1,0-.81.8A.81.81,0,0,0,411,241.66Zm2.41,0a.81.81,0,1,0-.8.8A.8.8,0,0,0,413.43,241.66Zm2.42,0a.81.81,0,1,0-.81.8A.81.81,0,0,0,415.85,241.66Zm2.41,0a.81.81,0,1,0-.8.8A.8.8,0,0,0,418.26,241.66Zm2.42,0a.81.81,0,1,0-.8.8A.8.8,0,0,0,420.68,241.66ZM408.6,248.3a.81.81,0,1,0-.8.8A.8.8,0,0,0,408.6,248.3Zm2.42,0a.81.81,0,1,0-.81.8A.81.81,0,0,0,411,248.3Zm2.41,0a.81.81,0,1,0-.8.8A.8.8,0,0,0,413.43,248.3Zm2.42,0a.81.81,0,1,0-.81.8A.81.81,0,0,0,415.85,248.3Zm2.41,0a.81.81,0,1,0-.8.8A.8.8,0,0,0,418.26,248.3Zm2.42,0a.81.81,0,1,0-.8.8A.8.8,0,0,0,420.68,248.3Z" style="fill:#FF8243"></path><path d="M88,200.25H85.18a.7.7,0,0,1,0-1.39H88a.7.7,0,0,1,0,1.39Zm.69,2.53a.69.69,0,0,0-.69-.7H85.18a.7.7,0,0,0,0,1.39H88A.69.69,0,0,0,88.69,202.78Zm0,3.22a.7.7,0,0,0-.69-.7H85.18a.7.7,0,0,0-.69.7.69.69,0,0,0,.69.69H88A.69.69,0,0,0,88.69,206Zm0,3.22a.69.69,0,0,0-.69-.69H85.18a.69.69,0,0,0-.69.69.7.7,0,0,0,.69.7H88A.7.7,0,0,0,88.69,209.22Zm0,3.22a.69.69,0,0,0-.69-.69H85.18a.7.7,0,0,0,0,1.39H88A.69.69,0,0,0,88.69,212.44Zm0,3.22A.69.69,0,0,0,88,215H85.18a.7.7,0,0,0,0,1.39H88A.69.69,0,0,0,88.69,215.66Zm0,3.22a.69.69,0,0,0-.69-.69H85.18a.7.7,0,0,0,0,1.39H88A.69.69,0,0,0,88.69,218.88Zm0,3.22a.69.69,0,0,0-.69-.69H85.18a.7.7,0,0,0,0,1.39H88A.69.69,0,0,0,88.69,222.1Zm10.55-22.54a.7.7,0,0,0-.7-.7H91.15a.7.7,0,1,0,0,1.39h7.39A.69.69,0,0,0,99.24,199.56Zm0,3.22a.7.7,0,0,0-.7-.7H91.15a.7.7,0,1,0,0,1.39h7.39A.69.69,0,0,0,99.24,202.78Zm0,3.22a.7.7,0,0,0-.7-.7H91.15a.7.7,0,0,0-.7.7.69.69,0,0,0,.7.69h7.39A.69.69,0,0,0,99.24,206Zm0,3.22a.69.69,0,0,0-.7-.69H91.15a.69.69,0,0,0-.7.69.7.7,0,0,0,.7.7h7.39A.7.7,0,0,0,99.24,209.22Zm0,3.22a.69.69,0,0,0-.7-.69H91.15a.7.7,0,1,0,0,1.39h7.39A.7.7,0,0,0,99.24,212.44Zm8.86,3.22a.7.7,0,0,0-.7-.69H100a.7.7,0,0,0,0,1.39h7.4A.7.7,0,0,0,108.1,215.66Zm0,3.22a.7.7,0,0,0-.7-.69H100a.7.7,0,0,0,0,1.39h7.4A.7.7,0,0,0,108.1,218.88Zm0,3.22a.7.7,0,0,0-.7-.69H100a.7.7,0,0,0,0,1.39h7.4A.7.7,0,0,0,108.1,222.1Zm-5.61-22.54a.81.81,0,1,0-.8.8A.8.8,0,0,0,102.49,199.56Zm2.42,0a.81.81,0,1,0-.81.8A.81.81,0,0,0,104.91,199.56Zm2.42,0a.81.81,0,0,0-.81-.81.81.81,0,1,0,.81.81Zm2.41,0a.81.81,0,1,0-.8.8A.8.8,0,0,0,109.74,199.56Zm2.42,0a.81.81,0,1,0-.81.8A.81.81,0,0,0,112.16,199.56Zm2.41,0a.81.81,0,1,0-.8.8A.8.8,0,0,0,114.57,199.56ZM102.49,206a.81.81,0,1,0-.8.81A.81.81,0,0,0,102.49,206Zm2.42,0a.81.81,0,1,0-.81.81A.81.81,0,0,0,104.91,206Zm2.42,0a.82.82,0,0,0-.81-.81.81.81,0,0,0,0,1.62A.82.82,0,0,0,107.33,206Zm2.41,0a.81.81,0,1,0-.8.81A.81.81,0,0,0,109.74,206Zm2.42,0a.81.81,0,1,0-.81.81A.81.81,0,0,0,112.16,206Zm2.41,0a.81.81,0,1,0-.8.81A.81.81,0,0,0,114.57,206Zm-3.82,9.26a.81.81,0,1,0-.81.81A.81.81,0,0,0,110.75,215.26Zm2.41,0a.81.81,0,1,0-.8.81A.81.81,0,0,0,113.16,215.26Zm2.42,0a.81.81,0,1,0-.81.81A.81.81,0,0,0,115.58,215.26Zm2.41,0a.81.81,0,1,0-.8.81A.81.81,0,0,0,118,215.26Zm2.42,0a.81.81,0,1,0-.81.81A.81.81,0,0,0,120.41,215.26Zm2.42,0a.81.81,0,1,0-.81.81A.81.81,0,0,0,122.83,215.26Zm-12.08,6.64a.81.81,0,1,0-.81.81A.8.8,0,0,0,110.75,221.9Zm2.41,0a.81.81,0,1,0-.8.81A.8.8,0,0,0,113.16,221.9Zm2.42,0a.81.81,0,1,0-.81.81A.8.8,0,0,0,115.58,221.9Zm2.41,0a.81.81,0,1,0-.8.81A.8.8,0,0,0,118,221.9Zm2.42,0a.81.81,0,1,0-.81.81A.8.8,0,0,0,120.41,221.9Zm2.42,0a.81.81,0,1,0-.81.81A.8.8,0,0,0,122.83,221.9Z" style="fill:#FF8243"></path><path d="M88,226H85.18a.7.7,0,0,1,0-1.39H88A.7.7,0,0,1,88,226Zm.69,2.52a.69.69,0,0,0-.69-.69H85.18a.7.7,0,0,0,0,1.39H88A.69.69,0,0,0,88.69,228.55Zm0,3.22a.69.69,0,0,0-.69-.69H85.18a.7.7,0,0,0,0,1.39H88A.69.69,0,0,0,88.69,231.77Zm0,3.22a.69.69,0,0,0-.69-.69H85.18a.7.7,0,0,0,0,1.39H88A.69.69,0,0,0,88.69,235Zm0,3.23a.69.69,0,0,0-.69-.7H85.18a.7.7,0,0,0,0,1.39H88A.69.69,0,0,0,88.69,238.22Zm0,3.22a.69.69,0,0,0-.69-.7H85.18a.7.7,0,0,0,0,1.39H88A.69.69,0,0,0,88.69,241.44Zm0,3.22A.69.69,0,0,0,88,244H85.18a.7.7,0,0,0,0,1.39H88A.69.69,0,0,0,88.69,244.66Zm0,3.22a.69.69,0,0,0-.69-.7H85.18a.7.7,0,0,0,0,1.39H88A.69.69,0,0,0,88.69,247.88Zm10.55-22.55a.69.69,0,0,0-.7-.69H91.15a.7.7,0,1,0,0,1.39h7.39A.7.7,0,0,0,99.24,225.33Zm0,3.22a.69.69,0,0,0-.7-.69H91.15a.7.7,0,1,0,0,1.39h7.39A.7.7,0,0,0,99.24,228.55Zm0,3.22a.69.69,0,0,0-.7-.69H91.15a.7.7,0,1,0,0,1.39h7.39A.7.7,0,0,0,99.24,231.77Zm0,3.22a.69.69,0,0,0-.7-.69H91.15a.7.7,0,1,0,0,1.39h7.39A.7.7,0,0,0,99.24,235Zm0,3.23a.7.7,0,0,0-.7-.7H91.15a.7.7,0,1,0,0,1.39h7.39A.69.69,0,0,0,99.24,238.22Zm8.86,3.22a.7.7,0,0,0-.7-.7H100a.7.7,0,0,0,0,1.39h7.4A.7.7,0,0,0,108.1,241.44Zm0,3.22a.7.7,0,0,0-.7-.7H100a.7.7,0,0,0,0,1.39h7.4A.7.7,0,0,0,108.1,244.66Zm0,3.22a.7.7,0,0,0-.7-.7H100a.7.7,0,0,0,0,1.39h7.4A.7.7,0,0,0,108.1,247.88Zm-5.61-22.55a.81.81,0,1,0-.8.81A.8.8,0,0,0,102.49,225.33Zm2.42,0a.81.81,0,1,0-.81.81A.8.8,0,0,0,104.91,225.33Zm2.42,0a.81.81,0,0,0-.81-.8.81.81,0,0,0,0,1.61A.81.81,0,0,0,107.33,225.33Zm2.41,0a.81.81,0,1,0-.8.81A.8.8,0,0,0,109.74,225.33Zm2.42,0a.81.81,0,1,0-.81.81A.8.8,0,0,0,112.16,225.33Zm2.41,0a.81.81,0,1,0-.8.81A.8.8,0,0,0,114.57,225.33Zm-12.08,6.44a.81.81,0,1,0-.8.81A.8.8,0,0,0,102.49,231.77Zm2.42,0a.81.81,0,1,0-.81.81A.8.8,0,0,0,104.91,231.77Zm2.42,0a.81.81,0,0,0-.81-.8.81.81,0,0,0,0,1.61A.81.81,0,0,0,107.33,231.77Zm2.41,0a.81.81,0,1,0-.8.81A.8.8,0,0,0,109.74,231.77Zm2.42,0a.81.81,0,1,0-.81.81A.8.8,0,0,0,112.16,231.77Zm2.41,0a.81.81,0,1,0-.8.81A.8.8,0,0,0,114.57,231.77ZM110.75,241a.81.81,0,1,0-.81.81A.8.8,0,0,0,110.75,241Zm2.41,0a.81.81,0,1,0-.8.81A.8.8,0,0,0,113.16,241Zm2.42,0a.81.81,0,1,0-.81.81A.8.8,0,0,0,115.58,241Zm2.41,0a.81.81,0,1,0-.8.81A.8.8,0,0,0,118,241Zm2.42,0a.81.81,0,1,0-.81.81A.8.8,0,0,0,120.41,241Zm2.42,0a.81.81,0,1,0-.81.81A.8.8,0,0,0,122.83,241Zm-12.08,6.65a.81.81,0,1,0-.81.8A.81.81,0,0,0,110.75,247.68Zm2.41,0a.81.81,0,1,0-.8.8A.8.8,0,0,0,113.16,247.68Zm2.42,0a.81.81,0,1,0-.81.8A.81.81,0,0,0,115.58,247.68Zm2.41,0a.81.81,0,1,0-.8.8A.8.8,0,0,0,118,247.68Zm2.42,0a.81.81,0,1,0-.81.8A.81.81,0,0,0,120.41,247.68Zm2.42,0a.81.81,0,1,0-.81.8A.81.81,0,0,0,122.83,247.68Z" style="fill:#FF8243"></path><path d="M88,252.42H85.18a.7.7,0,0,1,0-1.39H88a.7.7,0,0,1,0,1.39Zm.69,2.53a.69.69,0,0,0-.69-.7H85.18a.7.7,0,0,0,0,1.39H88A.69.69,0,0,0,88.69,255Zm0,3.22a.7.7,0,0,0-.69-.7H85.18a.7.7,0,0,0-.69.7.69.69,0,0,0,.69.69H88A.69.69,0,0,0,88.69,258.17Zm0,3.22a.69.69,0,0,0-.69-.69H85.18a.69.69,0,0,0-.69.69.7.7,0,0,0,.69.7H88A.7.7,0,0,0,88.69,261.39Zm0,3.22a.69.69,0,0,0-.69-.69H85.18a.7.7,0,0,0,0,1.39H88A.69.69,0,0,0,88.69,264.61Zm0,3.22a.69.69,0,0,0-.69-.69H85.18a.7.7,0,0,0,0,1.39H88A.69.69,0,0,0,88.69,267.83Zm0,3.22a.69.69,0,0,0-.69-.69H85.18a.7.7,0,0,0,0,1.39H88A.69.69,0,0,0,88.69,271.05Zm0,3.22a.69.69,0,0,0-.69-.69H85.18a.7.7,0,0,0,0,1.39H88A.69.69,0,0,0,88.69,274.27Zm10.55-22.54a.7.7,0,0,0-.7-.7H91.15a.7.7,0,1,0,0,1.39h7.39A.69.69,0,0,0,99.24,251.73Zm0,3.22a.7.7,0,0,0-.7-.7H91.15a.7.7,0,1,0,0,1.39h7.39A.69.69,0,0,0,99.24,255Zm0,3.22a.7.7,0,0,0-.7-.7H91.15a.7.7,0,0,0-.7.7.69.69,0,0,0,.7.69h7.39A.69.69,0,0,0,99.24,258.17Zm0,3.22a.69.69,0,0,0-.7-.69H91.15a.69.69,0,0,0-.7.69.7.7,0,0,0,.7.7h7.39A.7.7,0,0,0,99.24,261.39Zm0,3.22a.69.69,0,0,0-.7-.69H91.15a.7.7,0,1,0,0,1.39h7.39A.7.7,0,0,0,99.24,264.61Zm8.86,3.22a.7.7,0,0,0-.7-.69H100a.7.7,0,0,0,0,1.39h7.4A.7.7,0,0,0,108.1,267.83Zm0,3.22a.7.7,0,0,0-.7-.69H100a.7.7,0,0,0,0,1.39h7.4A.7.7,0,0,0,108.1,271.05Zm0,3.22a.7.7,0,0,0-.7-.69H100a.7.7,0,0,0,0,1.39h7.4A.7.7,0,0,0,108.1,274.27Zm-5.61-22.54a.81.81,0,1,0-.8.8A.8.8,0,0,0,102.49,251.73Zm2.42,0a.81.81,0,1,0-.81.8A.81.81,0,0,0,104.91,251.73Zm2.42,0a.81.81,0,0,0-.81-.81.81.81,0,1,0,.81.81Zm2.41,0a.81.81,0,1,0-.8.8A.8.8,0,0,0,109.74,251.73Zm2.42,0a.81.81,0,1,0-.81.8A.81.81,0,0,0,112.16,251.73Zm2.41,0a.81.81,0,1,0-.8.8A.8.8,0,0,0,114.57,251.73Zm-12.08,6.44a.81.81,0,1,0-.8.8A.8.8,0,0,0,102.49,258.17Zm2.42,0a.81.81,0,1,0-.81.8A.81.81,0,0,0,104.91,258.17Zm2.42,0a.81.81,0,0,0-.81-.81.81.81,0,1,0,.81.81Zm2.41,0a.81.81,0,1,0-.8.8A.8.8,0,0,0,109.74,258.17Zm2.42,0a.81.81,0,1,0-.81.8A.81.81,0,0,0,112.16,258.17Zm2.41,0a.81.81,0,1,0-.8.8A.8.8,0,0,0,114.57,258.17Zm-3.82,9.26a.81.81,0,1,0-.81.8A.81.81,0,0,0,110.75,267.43Zm2.41,0a.81.81,0,1,0-.8.8A.8.8,0,0,0,113.16,267.43Zm2.42,0a.81.81,0,1,0-.81.8A.81.81,0,0,0,115.58,267.43Zm2.41,0a.81.81,0,1,0-.8.8A.8.8,0,0,0,118,267.43Zm2.42,0a.81.81,0,1,0-.81.8A.81.81,0,0,0,120.41,267.43Zm2.42,0a.81.81,0,1,0-.81.8A.81.81,0,0,0,122.83,267.43Zm-12.08,6.64a.81.81,0,1,0-.81.81A.8.8,0,0,0,110.75,274.07Zm2.41,0a.81.81,0,1,0-.8.81A.8.8,0,0,0,113.16,274.07Zm2.42,0a.81.81,0,1,0-.81.81A.8.8,0,0,0,115.58,274.07Zm2.41,0a.81.81,0,1,0-.8.81A.8.8,0,0,0,118,274.07Zm2.42,0a.81.81,0,1,0-.81.81A.8.8,0,0,0,120.41,274.07Zm2.42,0a.81.81,0,1,0-.81.81A.8.8,0,0,0,122.83,274.07Z" style="fill:#FF8243"></path><path d="M131.27,200.25h-2.82a.7.7,0,0,1,0-1.39h2.82a.7.7,0,0,1,0,1.39Zm.69,2.53a.69.69,0,0,0-.69-.7h-2.82a.7.7,0,0,0,0,1.39h2.82A.69.69,0,0,0,132,202.78Zm0,3.22a.7.7,0,0,0-.69-.7h-2.82a.7.7,0,0,0-.69.7.69.69,0,0,0,.69.69h2.82A.69.69,0,0,0,132,206Zm0,3.22a.69.69,0,0,0-.69-.69h-2.82a.69.69,0,0,0-.69.69.7.7,0,0,0,.69.7h2.82A.7.7,0,0,0,132,209.22Zm0,3.22a.69.69,0,0,0-.69-.69h-2.82a.7.7,0,0,0,0,1.39h2.82A.69.69,0,0,0,132,212.44Zm0,3.22a.69.69,0,0,0-.69-.69h-2.82a.7.7,0,0,0,0,1.39h2.82A.69.69,0,0,0,132,215.66Zm0,3.22a.69.69,0,0,0-.69-.69h-2.82a.7.7,0,0,0,0,1.39h2.82A.69.69,0,0,0,132,218.88Zm0,3.22a.69.69,0,0,0-.69-.69h-2.82a.7.7,0,0,0,0,1.39h2.82A.69.69,0,0,0,132,222.1Zm10.55-22.54a.7.7,0,0,0-.7-.7h-7.4a.7.7,0,0,0,0,1.39h7.4A.69.69,0,0,0,142.51,199.56Zm0,3.22a.7.7,0,0,0-.7-.7h-7.4a.7.7,0,0,0,0,1.39h7.4A.69.69,0,0,0,142.51,202.78Zm0,3.22a.7.7,0,0,0-.7-.7h-7.4a.7.7,0,0,0-.69.7.69.69,0,0,0,.69.69h7.4A.69.69,0,0,0,142.51,206Zm0,3.22a.69.69,0,0,0-.7-.69h-7.4a.69.69,0,0,0-.69.69.7.7,0,0,0,.69.7h7.4A.7.7,0,0,0,142.51,209.22Zm0,3.22a.69.69,0,0,0-.7-.69h-7.4a.7.7,0,0,0,0,1.39h7.4A.7.7,0,0,0,142.51,212.44Zm8.85,3.22a.69.69,0,0,0-.69-.69h-7.4a.7.7,0,0,0,0,1.39h7.4A.69.69,0,0,0,151.36,215.66Zm0,3.22a.69.69,0,0,0-.69-.69h-7.4a.7.7,0,0,0,0,1.39h7.4A.69.69,0,0,0,151.36,218.88Zm0,3.22a.69.69,0,0,0-.69-.69h-7.4a.7.7,0,0,0,0,1.39h7.4A.69.69,0,0,0,151.36,222.1Zm-5.6-22.54a.81.81,0,1,0-.8.8A.8.8,0,0,0,145.76,199.56Zm2.42,0a.81.81,0,1,0-.81.8A.81.81,0,0,0,148.18,199.56Zm2.41,0a.81.81,0,1,0-.8.8A.8.8,0,0,0,150.59,199.56Zm2.42,0a.81.81,0,1,0-.81.8A.81.81,0,0,0,153,199.56Zm2.42,0a.81.81,0,1,0-.81.8A.81.81,0,0,0,155.43,199.56Zm2.41,0a.81.81,0,1,0-.8.8A.8.8,0,0,0,157.84,199.56ZM145.76,206a.81.81,0,1,0-.8.81A.81.81,0,0,0,145.76,206Zm2.42,0a.81.81,0,1,0-.81.81A.81.81,0,0,0,148.18,206Zm2.41,0a.81.81,0,1,0-.8.81A.81.81,0,0,0,150.59,206Zm2.42,0a.81.81,0,1,0-.81.81A.81.81,0,0,0,153,206Zm2.42,0a.81.81,0,1,0-.81.81A.82.82,0,0,0,155.43,206Zm2.41,0a.81.81,0,1,0-.8.81A.81.81,0,0,0,157.84,206ZM154,215.26a.81.81,0,1,0-.81.81A.81.81,0,0,0,154,215.26Zm2.41,0a.81.81,0,1,0-.8.81A.81.81,0,0,0,156.43,215.26Zm2.42,0a.81.81,0,1,0-.81.81A.81.81,0,0,0,158.85,215.26Zm2.41,0a.81.81,0,1,0-.8.81A.81.81,0,0,0,161.26,215.26Zm2.42,0a.81.81,0,1,0-.81.81A.81.81,0,0,0,163.68,215.26Zm2.41,0a.81.81,0,1,0-.8.81A.81.81,0,0,0,166.09,215.26ZM154,221.9a.81.81,0,1,0-.81.81A.8.8,0,0,0,154,221.9Zm2.41,0a.81.81,0,1,0-.8.81A.8.8,0,0,0,156.43,221.9Zm2.42,0a.81.81,0,1,0-.81.81A.8.8,0,0,0,158.85,221.9Zm2.41,0a.81.81,0,1,0-.8.81A.8.8,0,0,0,161.26,221.9Zm2.42,0a.81.81,0,1,0-.81.81A.8.8,0,0,0,163.68,221.9Zm2.41,0a.81.81,0,1,0-.8.81A.8.8,0,0,0,166.09,221.9Z" style="fill:#FF8243"></path><path d="M131.27,226.65h-2.82a.7.7,0,0,1,0-1.39h2.82a.7.7,0,0,1,0,1.39Zm.69,2.53a.69.69,0,0,0-.69-.7h-2.82a.7.7,0,0,0,0,1.39h2.82A.69.69,0,0,0,132,229.18Zm0,3.22a.69.69,0,0,0-.69-.7h-2.82a.7.7,0,0,0,0,1.39h2.82A.69.69,0,0,0,132,232.4Zm0,3.22a.69.69,0,0,0-.69-.7h-2.82a.7.7,0,0,0,0,1.39h2.82A.69.69,0,0,0,132,235.62Zm0,3.22a.69.69,0,0,0-.69-.7h-2.82a.7.7,0,0,0,0,1.39h2.82A.69.69,0,0,0,132,238.84Zm0,3.22a.69.69,0,0,0-.69-.7h-2.82a.7.7,0,0,0,0,1.39h2.82A.69.69,0,0,0,132,242.06Zm0,3.22a.7.7,0,0,0-.69-.7h-2.82a.7.7,0,0,0-.69.7.69.69,0,0,0,.69.69h2.82A.69.69,0,0,0,132,245.28Zm0,3.22a.69.69,0,0,0-.69-.69h-2.82a.69.69,0,0,0-.69.69.7.7,0,0,0,.69.7h2.82A.7.7,0,0,0,132,248.5ZM142.51,226a.69.69,0,0,0-.7-.69h-7.4a.7.7,0,0,0,0,1.39h7.4A.7.7,0,0,0,142.51,226Zm0,3.23a.7.7,0,0,0-.7-.7h-7.4a.7.7,0,0,0,0,1.39h7.4A.69.69,0,0,0,142.51,229.18Zm0,3.22a.7.7,0,0,0-.7-.7h-7.4a.7.7,0,0,0,0,1.39h7.4A.69.69,0,0,0,142.51,232.4Zm0,3.22a.7.7,0,0,0-.7-.7h-7.4a.7.7,0,0,0,0,1.39h7.4A.69.69,0,0,0,142.51,235.62Zm0,3.22a.7.7,0,0,0-.7-.7h-7.4a.7.7,0,0,0,0,1.39h7.4A.69.69,0,0,0,142.51,238.84Zm8.85,3.22a.69.69,0,0,0-.69-.7h-7.4a.7.7,0,0,0,0,1.39h7.4A.69.69,0,0,0,151.36,242.06Zm0,3.22a.7.7,0,0,0-.69-.7h-7.4a.7.7,0,0,0-.69.7.69.69,0,0,0,.69.69h7.4A.69.69,0,0,0,151.36,245.28Zm0,3.22a.69.69,0,0,0-.69-.69h-7.4a.69.69,0,0,0-.69.69.7.7,0,0,0,.69.7h7.4A.7.7,0,0,0,151.36,248.5ZM145.76,226a.81.81,0,1,0-.8.81A.8.8,0,0,0,145.76,226Zm2.42,0a.81.81,0,1,0-.81.81A.8.8,0,0,0,148.18,226Zm2.41,0a.81.81,0,1,0-.8.81A.8.8,0,0,0,150.59,226Zm2.42,0a.81.81,0,1,0-.81.81A.8.8,0,0,0,153,226Zm2.42,0a.81.81,0,1,0-.81.81A.81.81,0,0,0,155.43,226Zm2.41,0a.81.81,0,1,0-.8.81A.8.8,0,0,0,157.84,226Zm-12.08,6.45a.81.81,0,1,0-.8.8A.8.8,0,0,0,145.76,232.4Zm2.42,0a.81.81,0,1,0-.81.8A.81.81,0,0,0,148.18,232.4Zm2.41,0a.81.81,0,1,0-.8.8A.8.8,0,0,0,150.59,232.4Zm2.42,0a.81.81,0,1,0-.81.8A.81.81,0,0,0,153,232.4Zm2.42,0a.81.81,0,1,0-.81.8A.81.81,0,0,0,155.43,232.4Zm2.41,0a.81.81,0,1,0-.8.8A.8.8,0,0,0,157.84,232.4ZM154,241.66a.81.81,0,1,0-.81.8A.81.81,0,0,0,154,241.66Zm2.41,0a.81.81,0,1,0-.8.8A.8.8,0,0,0,156.43,241.66Zm2.42,0a.81.81,0,1,0-.81.8A.81.81,0,0,0,158.85,241.66Zm2.41,0a.81.81,0,1,0-.8.8A.8.8,0,0,0,161.26,241.66Zm2.42,0a.81.81,0,1,0-.81.8A.81.81,0,0,0,163.68,241.66Zm2.41,0a.81.81,0,1,0-.8.8A.8.8,0,0,0,166.09,241.66ZM154,248.3a.81.81,0,1,0-.81.8A.81.81,0,0,0,154,248.3Zm2.41,0a.81.81,0,1,0-.8.8A.8.8,0,0,0,156.43,248.3Zm2.42,0a.81.81,0,1,0-.81.8A.81.81,0,0,0,158.85,248.3Zm2.41,0a.81.81,0,1,0-.8.8A.8.8,0,0,0,161.26,248.3Zm2.42,0a.81.81,0,1,0-.81.8A.81.81,0,0,0,163.68,248.3Zm2.41,0a.81.81,0,1,0-.8.8A.8.8,0,0,0,166.09,248.3Z" style="fill:#FF8243"></path><rect x="362.68" y="297.22" width="26.16" height="21.51" style="fill:#fff;stroke:#8f8f8f;stroke-miterlimit:10"></rect><polyline points="362.97 308.84 372.86 302.45 378.67 310.29 383.61 307.68 388.26 313.2" style="fill:none;stroke:#8f8f8f;stroke-miterlimit:10"></polyline><path d="M385.64,302.45a3.2,3.2,0,1,1-3.19-3.2A3.19,3.19,0,0,1,385.64,302.45Z" style="fill:none;stroke:#8f8f8f;stroke-miterlimit:10"></path><rect x="372.81" y="309.66" width="26.16" height="21.51" style="fill:#fff;stroke:#8f8f8f;stroke-miterlimit:10"></rect><polyline points="373.1 321.28 382.98 314.89 388.79 322.73 393.73 320.12 398.38 325.64" style="fill:none;stroke:#8f8f8f;stroke-miterlimit:10"></polyline><path d="M395.77,314.89a3.2,3.2,0,1,1-3.2-3.2A3.19,3.19,0,0,1,395.77,314.89Z" style="fill:none;stroke:#8f8f8f;stroke-miterlimit:10"></path><rect x="379.2" y="322.73" width="26.16" height="21.51" style="fill:#fff;stroke:#8f8f8f;stroke-miterlimit:10"></rect><polyline points="379.49 334.36 389.37 327.97 395.19 335.81 400.13 333.2 404.78 338.72" style="fill:none;stroke:#8f8f8f;stroke-miterlimit:10"></polyline><path d="M402.16,328a3.2,3.2,0,1,1-3.19-3.2A3.19,3.19,0,0,1,402.16,328Z" style="fill:none;stroke:#8f8f8f;stroke-miterlimit:10"></path><line x1="89.05" y1="346.9" x2="144.88" y2="346.9" style="fill:none;stroke:#8f8f8f;stroke-miterlimit:10"></line><line x1="117" y1="346.9" x2="117" y2="319.17" style="fill:none;stroke:#8f8f8f;stroke-miterlimit:10"></line><circle cx="89.05" cy="346.9" r="10.25" transform="translate(-125.97 60.48) rotate(-22.5)" style="fill:#fff;stroke:#8f8f8f;stroke-miterlimit:10"></circle><path d="M97.19,353.11l-8.42-4.77V336.66a10.25,10.25,0,1,0,8.42,16.45Z" style="fill:#FF8243;stroke:#8f8f8f;stroke-miterlimit:10"></path><path d="M95.06,346.9a6,6,0,1,1-6-6A6,6,0,0,1,95.06,346.9Z" style="fill:#fff;stroke:#8f8f8f;stroke-miterlimit:10"></path><circle cx="117" cy="346.9" r="10.25" transform="matrix(0.92, -0.39, 0.39, 0.92, -127.27, 74.21)" style="fill:#fff;stroke:#8f8f8f;stroke-miterlimit:10"></circle><path d="M125.14,353.11l-8.42-4.77V336.66a10.25,10.25,0,1,0,8.42,16.45Z" style="fill:#FF8243;stroke:#8f8f8f;stroke-miterlimit:10"></path><path d="M123,346.9a6,6,0,1,1-6-6A6,6,0,0,1,123,346.9Z" style="fill:#fff;stroke:#8f8f8f;stroke-miterlimit:10"></path><circle cx="144.95" cy="346.9" r="10.25" transform="translate(-226.66 403.9) rotate(-76.04)" style="fill:#fff;stroke:#8f8f8f;stroke-miterlimit:10"></circle><path d="M153.09,353.11l-8.41-4.77V336.66a10.25,10.25,0,1,0,8.41,16.45Z" style="fill:#FF8243;stroke:#8f8f8f;stroke-miterlimit:10"></path><path d="M151,346.9a6,6,0,1,1-6-6A6,6,0,0,1,151,346.9Z" style="fill:#fff;stroke:#8f8f8f;stroke-miterlimit:10"></path><polygon points="105.06 318.69 87.16 318.69 87.16 298.16 91.87 293.64 105.06 293.64 105.06 318.69" style="fill:#fff;stroke:#8f8f8f;stroke-linecap:round;stroke-linejoin:round"></polygon><polygon points="87.16 298.16 92.03 298.16 92.03 293.64 87.16 298.16" style="fill:#fff;stroke:#8f8f8f;stroke-linecap:round;stroke-linejoin:round"></polygon><polygon points="124.63 318.69 106.73 318.69 106.73 298.16 111.44 293.64 124.63 293.64 124.63 318.69" style="fill:#fff;stroke:#8f8f8f;stroke-linecap:round;stroke-linejoin:round"></polygon><polygon points="106.73 298.16 111.6 298.16 111.6 293.64 106.73 298.16" style="fill:#fff;stroke:#8f8f8f;stroke-linecap:round;stroke-linejoin:round"></polygon><polygon points="144.2 318.69 126.3 318.69 126.3 298.16 131.01 293.64 144.2 293.64 144.2 318.69" style="fill:#fff;stroke:#8f8f8f;stroke-linecap:round;stroke-linejoin:round"></polygon><polygon points="126.3 298.16 131.17 298.16 131.17 293.64 126.3 298.16" style="fill:#fff;stroke:#8f8f8f;stroke-linecap:round;stroke-linejoin:round"></polygon><rect x="184.11" y="264.15" width="4.15" height="12.14" style="fill:#FF8243"></rect><rect x="191.14" y="254.25" width="4.15" height="22.04" style="fill:#FF8243"></rect><rect x="198.16" y="258.08" width="4.15" height="18.21" style="fill:#FF8243"></rect><rect x="205.19" y="268.63" width="4.15" height="7.67" style="fill:#FF8243"></rect><rect x="310.5" y="264.15" width="4.15" height="12.14" style="fill:#FF8243"></rect><rect x="317.53" y="254.25" width="4.15" height="22.04" style="fill:#FF8243"></rect><rect x="324.56" y="258.08" width="4.15" height="18.21" style="fill:#FF8243"></rect><rect x="331.58" y="268.63" width="4.15" height="7.67" style="fill:#FF8243"></rect></g><g id="freepik--Character--inject-34"><path d="M337.38,322.9,293.7,302.56c-6.19-1.28-12.38-2.61-18.57-3.89-4.64-.95-9.82-2.05-14.78-1.72-5.71.39-11.44,2.32-17.08,3.32-4.4.78-8.84,1.39-13.22,2.29L186.38,322.9l-47,96.33H378.05Z" style="fill:#fff;stroke:#263238;stroke-miterlimit:10"></path><line x1="185.21" y1="417.49" x2="197.95" y2="357.86" style="fill:none;stroke:#263238;stroke-miterlimit:10"></line><line x1="195.22" y1="371.06" x2="192.04" y2="351.94" style="fill:none;stroke:#263238;stroke-miterlimit:10"></line><line x1="337.25" y1="417.49" x2="324.51" y2="357.86" style="fill:none;stroke:#263238;stroke-miterlimit:10"></line><line x1="327.24" y1="371.06" x2="330.43" y2="351.94" style="fill:none;stroke:#263238;stroke-miterlimit:10"></line><path d="M235.94,278.66v18.58s15.18,17.53,17.8,19.1a17.36,17.36,0,0,0,9.16,2.1c2.36-.26,12.83-7.33,14.13-8.9s7.59-13.35,7.59-13.35l-.78-19.63Z" style="fill:#9c9c9c;stroke:#263238;stroke-miterlimit:10"></path><path d="M235.88,280.93s15.76,19.89,22.61,20.16c7.22.28,25.08-20.16,25.08-20.16Z" style="fill:#263238"></path><path d="M232.28,251.7s-4.19-4.19-6.81-.26-2.09,6.8,1.57,12.56,7.07,4.71,7.86,2.09S232.28,251.7,232.28,251.7Z" style="fill:#9c9c9c;stroke:#263238;stroke-miterlimit:10"></path><path d="M287.29,251.7s4.19-4.19,6.81-.26,2.09,6.8-1.57,12.56-7.07,4.71-7.85,2.09S287.29,251.7,287.29,251.7Z" style="fill:#9c9c9c;stroke:#263238;stroke-miterlimit:10"></path><path d="M280.88,214c-11.13-7.16-31.58-7.29-42.84,0-8.9,5.76-8.12,13.87-7.85,28.27,0,0,2.35,32.71,3.92,36.38,1.18,2.74,11.45,10.18,16.54,13.74a11.24,11.24,0,0,0,6.41,2.06c.73,0,1.52,0,2.33,0s1.59,0,2.32,0a11.25,11.25,0,0,0,6.34-2c5.12-3.54,15.6-11,16.79-13.79,1.58-3.67,4-36.38,4-36.38C289.06,227.88,289.85,219.77,280.88,214Z" style="fill:#9c9c9c;stroke:#263238;stroke-miterlimit:10"></path><path d="M280.88,214c-11.13-7.16-31.58-7.29-42.84,0-8.9,5.76-8.12,13.87-7.85,28.27,0,0,.21,2.92.54,7.11l1.29-.57V237s4.45-2.88,5.76-6.54,2.35-9.42,5.23-10.47,11,4.67,20.68,2.31,11.77-5.19,15.7-.48,3.4,11.25,5,13.61l3.14,4.71-.78,11.26,1.32.44c.45-5.48.75-9.6.75-9.6C289.06,227.88,289.85,219.77,280.88,214Z" style="fill:#263238;stroke:#263238;stroke-miterlimit:10"></path><path d="M256.57,236.37a7.9,7.9,0,0,0-1.88-.35,110.54,110.54,0,0,0-20.5-.17c-3.65.31-3.81.94-2.82,4.06a30.12,30.12,0,0,1,.8,6.16,9.09,9.09,0,0,0,2.2,5.68,8.63,8.63,0,0,0,5.41,2.07,38.34,38.34,0,0,0,7.41-.34c2.41-.28,5-.63,6.81-2.2s2.64-4.26,2.89-6.75.15-5.05.8-7.48A3,3,0,0,0,256.57,236.37Z" style="fill:#fff;stroke:#263238;stroke-linecap:round;stroke-linejoin:round;stroke-width:2px"></path><path d="M263.26,236.37a7.9,7.9,0,0,1,1.88-.35,110.54,110.54,0,0,1,20.5-.17c3.65.31,3.81.94,2.82,4.06a30.12,30.12,0,0,0-.8,6.16,9.09,9.09,0,0,1-2.2,5.68,8.63,8.63,0,0,1-5.41,2.07,38.3,38.3,0,0,1-7.41-.34c-2.41-.28-5-.63-6.81-2.2s-2.64-4.26-2.89-6.75-.15-5.05-.8-7.48A3,3,0,0,1,263.26,236.37Z" style="fill:#fff;stroke:#263238;stroke-linecap:round;stroke-linejoin:round;stroke-width:2px"></path><line x1="257.69" y1="237.05" x2="261.33" y2="237.05" style="fill:none;stroke:#263238;stroke-linecap:round;stroke-linejoin:round;stroke-width:2px"></line><path d="M257.67,241s2.35-3.67,4.71,0" style="fill:none;stroke:#263238;stroke-linecap:round;stroke-linejoin:round;stroke-width:2px"></path><path d="M230.71,236.52s-2.36,5,0,16" style="fill:none;stroke:#263238;stroke-linecap:round;stroke-linejoin:round;stroke-width:2px"></path><path d="M288.79,236.52s2.35,5,0,16" style="fill:none;stroke:#263238;stroke-linecap:round;stroke-linejoin:round;stroke-width:2px"></path><path d="M238.56,232.85s8.61-3.15,13.87.53" style="fill:none;stroke:#263238;stroke-linecap:round;stroke-linejoin:round;stroke-width:2px"></path><path d="M266.57,233.64s5.52-5.88,12.3-1.83" style="fill:none;stroke:#263238;stroke-linecap:round;stroke-linejoin:round;stroke-width:2px"></path><path d="M252.69,256.67a5.63,5.63,0,0,0,1.84,2.36c1,.52,4.71.52,8.11.26a6.55,6.55,0,0,0,5-3.14" style="fill:none;stroke:#263238;stroke-miterlimit:10"></path><line x1="255.31" y1="267.66" x2="264.73" y2="267.66" style="fill:none;stroke:#263238;stroke-miterlimit:10"></line><path d="M253,315.3s5,2.35,7.59,2.09,6.8-2.36,6.8-2.36l5,6.29L265,331.26h-8.11l-8.64-9.94Z" style="fill:#263238;stroke:#263238;stroke-miterlimit:10"></path><polygon points="282.71 419.31 265 331.26 256.88 331.26 243.98 419.31 282.71 419.31" style="fill:#263238;stroke:#263238;stroke-miterlimit:10"></polygon><path d="M255.05,315l-12.83,17.8s-13.34-22.77-14.65-26.43,1.83-7.85,1.83-7.85,4.45-7.59,5.5-7.33S255.05,315,255.05,315Z" style="fill:#fff;stroke:#263238;stroke-miterlimit:10"></path><path d="M264.41,315l12.83,17.8s13.35-22.77,14.66-26.43-1.84-7.85-1.84-7.85-4.45-7.59-5.49-7.33S264.41,315,264.41,315Z" style="fill:#fff;stroke:#263238;stroke-miterlimit:10"></path><polygon points="173.38 394.9 187.38 419.23 137.38 419.23 135.05 395.56 173.38 394.9" style="fill:#9c9c9c;stroke:#263238;stroke-miterlimit:10"></polygon><path d="M152.05,370.56s15.67,5.34,20.67,6.67,11.66,2,12.66,4,8.34,6,12,7,11-.33,11.67,3-1.67,6.67-5.67,9-14.33,1.67-17.33.33-6-5.66-9.67-6-7.66,4.34-12,5.34-15,.66-18,.66-17.33,1.34-20.66.67-12-5.33-14-5.33-3.67-8,1-11.34,21.33-6.33,23.66-7.33Z" style="fill:#9c9c9c;stroke:#263238;stroke-miterlimit:10"></path><path d="M110.38,384.9s-8.33,4-9.33,5.66-.33,11,1,16,4,11.34,6.67,11.67,3.33-2.67,3-7-2-14.67-1.67-17.33S110.38,384.9,110.38,384.9Z" style="fill:#9c9c9c;stroke:#263238;stroke-miterlimit:10"></path><path d="M128.38,381.56s-12.66-1.33-14.33-1.33-5.67,3.33-6.33,7.67,1,22.66,2,24.33,9,1.67,10,.33,1.33-19,1.33-19l5.67-.66Z" style="fill:#9c9c9c;stroke:#263238;stroke-miterlimit:10"></path><path d="M140.05,372.23s-3.33-1.67-8.67-.33-7.33,3.66-7.33,9.66-.33,16.67,1.67,19.67,5,10,7.33,11.33,7.67,1.67,9-.33-1-15.67-1-19.33S140.05,372.23,140.05,372.23Z" style="fill:#9c9c9c;stroke:#263238;stroke-miterlimit:10"></path><path d="M160.72,374.56s-13.67-8-16-8-6.67,3.67-8,6.67-1,17.67-1,20,5.33,13.33,5.66,14.67-.33,5,2.34,5.33,10.66.67,11.33-4.33-3.33-18.34-3.33-18.34l1-9.33" style="fill:#9c9c9c;stroke:#263238;stroke-miterlimit:10"></path><path d="M152.05,388.23a11.44,11.44,0,0,0,8-4.67" style="fill:none;stroke:#263238;stroke-miterlimit:10"></path><polygon points="347.35 394.9 333.35 419.23 383.35 419.23 385.68 395.56 347.35 394.9" style="fill:#9c9c9c;stroke:#263238;stroke-miterlimit:10"></polygon><path d="M368.68,370.56S353,375.9,348,377.23s-11.66,2-12.66,4-8.34,6-12,7-11-.33-11.67,3,1.67,6.67,5.67,9,14.33,1.67,17.33.33,6-5.66,9.67-6,7.66,4.34,12,5.34,15,.66,18,.66,17.33,1.34,20.66.67,12-5.33,14-5.33,3.67-8-1-11.34-21.33-6.33-23.66-7.33Z" style="fill:#9c9c9c;stroke:#263238;stroke-miterlimit:10"></path><path d="M411,384.9s8.34,4,9.34,5.66.33,11-1,16-4,11.34-6.67,11.67-3.33-2.67-3-7,2-14.67,1.67-17.33S411,384.9,411,384.9Z" style="fill:#9c9c9c;stroke:#263238;stroke-miterlimit:10"></path><path d="M393,381.56s12.67-1.33,14.34-1.33,5.66,3.33,6.33,7.67-1,22.66-2,24.33-9,1.67-10,.33-1.33-19-1.33-19l-5.67-.66Z" style="fill:#9c9c9c;stroke:#263238;stroke-miterlimit:10"></path><path d="M380.68,372.23s3.33-1.67,8.67-.33,7.33,3.66,7.33,9.66.33,16.67-1.67,19.67-5,10-7.33,11.33-7.67,1.67-9-.33,1-15.67,1-19.33S380.68,372.23,380.68,372.23Z" style="fill:#9c9c9c;stroke:#263238;stroke-miterlimit:10"></path><path d="M360,374.56s13.67-8,16-8,6.67,3.67,8,6.67,1,17.67,1,20-5.33,13.33-5.66,14.67.33,5-2.34,5.33-10.66.67-11.33-4.33S369,390.56,369,390.56l-1-9.33" style="fill:#9c9c9c;stroke:#263238;stroke-miterlimit:10"></path><path d="M368.68,388.23a11.44,11.44,0,0,1-8-4.67" style="fill:none;stroke:#263238;stroke-miterlimit:10"></path><rect x="97.2" y="414.23" width="17.47" height="5.2" rx="1.13" style="fill:#263238;stroke:#263238;stroke-miterlimit:10"></rect><rect x="119.31" y="414.23" width="17.47" height="5.2" rx="1.13" style="fill:#263238;stroke:#263238;stroke-miterlimit:10"></rect><rect x="141.42" y="414.23" width="17.47" height="5.2" rx="1.13" style="fill:#263238;stroke:#263238;stroke-miterlimit:10"></rect><rect x="163.53" y="414.23" width="17.47" height="5.2" rx="1.13" style="fill:#263238;stroke:#263238;stroke-miterlimit:10"></rect><rect x="185.64" y="414.23" width="17.47" height="5.2" rx="1.13" style="fill:#263238;stroke:#263238;stroke-miterlimit:10"></rect><rect x="207.75" y="414.23" width="17.47" height="5.2" rx="1.13" style="fill:#263238;stroke:#263238;stroke-miterlimit:10"></rect><rect x="229.86" y="414.23" width="17.47" height="5.2" rx="1.13" style="fill:#263238;stroke:#263238;stroke-miterlimit:10"></rect><rect x="251.97" y="414.23" width="17.47" height="5.2" rx="1.13" style="fill:#263238;stroke:#263238;stroke-miterlimit:10"></rect><rect x="274.08" y="414.23" width="17.47" height="5.2" rx="1.13" style="fill:#263238;stroke:#263238;stroke-miterlimit:10"></rect><rect x="296.19" y="414.23" width="17.47" height="5.2" rx="1.13" style="fill:#263238;stroke:#263238;stroke-miterlimit:10"></rect><rect x="318.29" y="414.23" width="17.47" height="5.2" rx="1.13" style="fill:#263238;stroke:#263238;stroke-miterlimit:10"></rect><rect x="340.4" y="414.23" width="17.47" height="5.2" rx="1.13" style="fill:#263238;stroke:#263238;stroke-miterlimit:10"></rect><rect x="362.51" y="414.23" width="17.47" height="5.2" rx="1.13" style="fill:#263238;stroke:#263238;stroke-miterlimit:10"></rect><rect x="384.62" y="414.23" width="17.47" height="5.2" rx="1.13" style="fill:#263238;stroke:#263238;stroke-miterlimit:10"></rect><rect x="406.73" y="414.23" width="17.47" height="5.2" rx="1.13" style="fill:#263238;stroke:#263238;stroke-miterlimit:10"></rect><rect x="90.98" y="417.53" width="339.44" height="14.53" style="fill:#263238;stroke:#263238;stroke-miterlimit:10"></rect><line x1="41.2" y1="432.06" x2="480.2" y2="432.06" style="fill:none;stroke:#263238;stroke-miterlimit:10"></line></g><g id="freepik--progress-bar--inject-34"><rect x="184.78" y="145.89" width="151.18" height="17.85" style="fill:#fff;stroke:#263238;stroke-linecap:round;stroke-linejoin:round"></rect><rect x="222.71" y="149.13" width="9.08" height="11.36" style="fill:#FF8243;stroke:#263238;stroke-linecap:round;stroke-linejoin:round"></rect><rect x="211.74" y="149.13" width="9.08" height="11.36" style="fill:#FF8243;stroke:#263238;stroke-linecap:round;stroke-linejoin:round"></rect><rect x="200.77" y="149.13" width="9.08" height="11.36" style="fill:#FF8243;stroke:#263238;stroke-linecap:round;stroke-linejoin:round"></rect><rect x="189.81" y="149.13" width="9.08" height="11.36" style="fill:#FF8243;stroke:#263238;stroke-linecap:round;stroke-linejoin:round"></rect><rect x="233.68" y="149.13" width="9.08" height="11.36" style="fill:#FF8243;stroke:#263238;stroke-linecap:round;stroke-linejoin:round"></rect><rect x="277.3" y="149.13" width="9.08" height="11.36" style="fill:#FF8243;stroke:#263238;stroke-linecap:round;stroke-linejoin:round"></rect><rect x="266.33" y="149.13" width="9.08" height="11.36" style="fill:#FF8243;stroke:#263238;stroke-linecap:round;stroke-linejoin:round"></rect><rect x="255.37" y="149.13" width="9.08" height="11.36" style="fill:#FF8243;stroke:#263238;stroke-linecap:round;stroke-linejoin:round"></rect><rect x="244.4" y="149.13" width="9.08" height="11.36" style="fill:#FF8243;stroke:#263238;stroke-linecap:round;stroke-linejoin:round"></rect><rect x="288.27" y="149.13" width="9.08" height="11.36" style="fill:#FF8243;stroke:#263238;stroke-linecap:round;stroke-linejoin:round"></rect><path d="M222.88,128.88v.94h-.71v-1c0-1.21-.47-2.14-1.72-2.14s-1.71.93-1.71,2.14v5.89c0,1.22.47,2.12,1.71,2.12s1.72-.9,1.72-2.12v-1.34h.71v1.29c0,1.64-.71,2.87-2.44,2.87s-2.45-1.23-2.45-2.87v-5.79c0-1.64.72-2.87,2.45-2.87S222.88,127.24,222.88,128.88Z" style="fill:#263238"></path><path d="M224.05,128.88c0-1.65.76-2.87,2.47-2.87s2.51,1.22,2.51,2.87v5.79c0,1.66-.76,2.87-2.51,2.87s-2.47-1.21-2.47-2.87Zm.74,5.84c0,1.23.49,2.14,1.73,2.14s1.77-.91,1.77-2.14v-5.89c0-1.23-.5-2.14-1.77-2.14s-1.73.91-1.73,2.14Z" style="fill:#263238"></path><path d="M232.61,126.11c1.75,0,2.43,1.1,2.43,2.75v1.23c0,1.8-.83,2.69-2.63,2.69H231v4.66h-.74V126.11Zm-.2,6c1.32,0,1.88-.58,1.88-2v-1.33c0-1.23-.42-2-1.68-2H231v5.31Z" style="fill:#263238"></path><path d="M238.45,133.09l-2.54-7h.78l2.16,6,2.17-6h.73l-2.56,7v4.35h-.74Z" style="fill:#263238"></path><path d="M243.58,126.11v11.33h-.75V126.11Z" style="fill:#263238"></path><path d="M245.55,137.44h-.68V126.11h1l3.4,9.57v-9.57h.68v11.33h-.82l-3.55-10.1Z" style="fill:#263238"></path><path d="M256,128.88v.84h-.71v-.89c0-1.21-.47-2.14-1.72-2.14s-1.71.93-1.71,2.14v5.89c0,1.22.47,2.12,1.71,2.12s1.72-.9,1.72-2.12v-2.44h-1.51v-.68H256v3.07c0,1.64-.71,2.87-2.44,2.87s-2.45-1.23-2.45-2.87v-5.79c0-1.64.71-2.87,2.45-2.87S256,127.24,256,128.88Z" style="fill:#263238"></path><path d="M260.88,134.93l-.57,2.51h-.68l2.48-11.35h1.08l2.53,11.35H265l-.56-2.51Zm.11-.64h3.3L262.63,127Z" style="fill:#263238"></path><path d="M266.85,137.44V126.11h.74v10.65h3.57v.68Z" style="fill:#263238"></path><path d="M272.27,137.44V126.11H273v10.65h3.56v.68Z" style="fill:#263238"></path><path d="M282.69,126.11c1.75,0,2.51,1.15,2.51,2.82v5.7c0,1.66-.76,2.81-2.51,2.81H280.2V126.11Zm0,10.65c1.26,0,1.78-.85,1.78-2.1V128.9c0-1.25-.54-2.11-1.78-2.11H281v10Z" style="fill:#263238"></path><path d="M287.5,134.93l-.57,2.51h-.68l2.48-11.35h1.09l2.52,11.35h-.74l-.57-2.51Zm.11-.64h3.31L289.25,127Z" style="fill:#263238"></path><path d="M294.77,137.44V126.79h-2.3v-.68h5.36v.68h-2.32v10.65Z" style="fill:#263238"></path><path d="M299.22,134.93l-.57,2.51H298l2.48-11.35h1.08l2.53,11.35h-.75l-.56-2.51Zm.11-.64h3.3L301,127Z" style="fill:#263238"></path></g></svg>